<?xml version="1.0" encoding="UTF-8" standalone="no"?>
<!DOCTYPE svg PUBLIC "-//W3C//DTD SVG 1.1//EN"
 "http://www.w3.org/Graphics/SVG/1.1/DTD/svg11.dtd">
<!-- Generated by graphviz version 3.0.0 (20220226.1711)
 -->
<!-- Title: dependency&#45;cruiser output Pages: 1 -->
<svg width="405pt" height="202pt"
 viewBox="0.00 0.00 405.00 202.00" xmlns="http://www.w3.org/2000/svg" xmlns:xlink="http://www.w3.org/1999/xlink">
<g id="graph0" class="graph" transform="scale(1 1) rotate(0) translate(4 198)">
<title>dependency&#45;cruiser output</title>
<polygon fill="white" stroke="transparent" points="-4,4 -4,-198 401,-198 401,4 -4,4"/>
<g id="clust1" class="cluster">
<title>cluster_lib</title>
<path fill="#ffffff" stroke="black" stroke-width="2" d="M20,-8C20,-8 377,-8 377,-8 383,-8 389,-14 389,-20 389,-20 389,-174 389,-174 389,-180 383,-186 377,-186 377,-186 20,-186 20,-186 14,-186 8,-180 8,-174 8,-174 8,-20 8,-20 8,-14 14,-8 20,-8"/>
<text text-anchor="middle" x="198.5" y="-174.8" font-family="Helvetica,sans-Serif" font-weight="bold" font-size="9.00">lib</text>
</g>
<g id="clust2" class="cluster">
<title>cluster_lib/Figures</title>
<path fill="#ffffff" stroke="black" stroke-width="2" d="M224,-22C224,-22 369,-22 369,-22 375,-22 381,-28 381,-34 381,-34 381,-122 381,-122 381,-128 375,-134 369,-134 369,-134 224,-134 224,-134 218,-134 212,-128 212,-122 212,-122 212,-34 212,-34 212,-28 218,-22 224,-22"/>
<text text-anchor="middle" x="296.5" y="-122.8" font-family="Helvetica,sans-Serif" font-weight="bold" font-size="9.00">Figures</text>
</g>
<!-- lib/Draw.ts -->
<g id="node1" class="node">
<title>lib/Draw.ts</title>
<g id="a_node1"><a xlink:href="lib/Draw.ts" xlink:title="Draw.ts">
<path fill="#ddfeff" stroke="black" d="M131,-115C131,-115 89,-115 89,-115 86,-115 83,-112 83,-109 83,-109 83,-103 83,-103 83,-100 86,-97 89,-97 89,-97 131,-97 131,-97 134,-97 137,-100 137,-103 137,-103 137,-109 137,-109 137,-112 134,-115 131,-115"/>
<text text-anchor="start" x="94" y="-103.8" font-family="Helvetica,sans-Serif" font-size="9.00">Draw.ts</text>
</a>
</g>
</g>
<!-- lib/Graph.ts -->
<g id="node2" class="node">
<title>lib/Graph.ts</title>
<g id="a_node2"><a xlink:href="lib/Graph.ts" xlink:title="Graph.ts">
<path fill="#ddfeff" stroke="black" d="M198,-93C198,-93 156,-93 156,-93 153,-93 150,-90 150,-87 150,-87 150,-81 150,-81 150,-78 153,-75 156,-75 156,-75 198,-75 198,-75 201,-75 204,-78 204,-81 204,-81 204,-87 204,-87 204,-90 201,-93 198,-93"/>
<text text-anchor="start" x="159" y="-81.8" font-family="Helvetica,sans-Serif" font-size="9.00">Graph.ts</text>
</a>
</g>
</g>
<!-- lib/Draw.ts&#45;&gt;lib/Graph.ts -->
<g id="edge1" class="edge">
<title>lib/Draw.ts&#45;&gt;lib/Graph.ts</title>
<path fill="none" stroke="#000000" stroke-width="2" stroke-opacity="0.200000" d="M110,-96.9C110,-93.6 110,-90.67 110,-90.67 110,-90.67 143.75,-90.67 143.75,-90.67"/>
<polygon fill="#000000" fill-opacity="0.200000" stroke="#000000" stroke-width="2" stroke-opacity="0.200000" points="143.75,-92.77 149.75,-90.67 143.75,-88.57 143.75,-92.77"/>
</g>
<!-- lib/pithree.types.ts -->
<g id="node3" class="node">
<title>lib/pithree.types.ts</title>
<g id="a_node3"><a xlink:href="lib/pithree.types.ts" xlink:title="pithree.types.ts">
<path fill="#ddfeff" stroke="black" d="M363.5,-160C363.5,-160 296.5,-160 296.5,-160 293.5,-160 290.5,-157 290.5,-154 290.5,-154 290.5,-148 290.5,-148 290.5,-145 293.5,-142 296.5,-142 296.5,-142 363.5,-142 363.5,-142 366.5,-142 369.5,-145 369.5,-148 369.5,-148 369.5,-154 369.5,-154 369.5,-157 366.5,-160 363.5,-160"/>
<text text-anchor="start" x="298.5" y="-148.8" font-family="Helvetica,sans-Serif" font-size="9.00">pithree.types.ts</text>
</a>
</g>
</g>
<!-- lib/Draw.ts&#45;&gt;lib/pithree.types.ts -->
<g id="edge2" class="edge">
<title>lib/Draw.ts&#45;&gt;lib/pithree.types.ts</title>
<path fill="none" stroke="#000000" stroke-width="2" stroke-opacity="0.200000" d="M110,-115.08C110,-129.37 110,-155.5 110,-155.5 110,-155.5 284.41,-155.5 284.41,-155.5"/>
<polygon fill="#000000" fill-opacity="0.200000" stroke="#000000" stroke-width="2" stroke-opacity="0.200000" points="284.41,-157.6 290.41,-155.5 284.41,-153.4 284.41,-157.6"/>
</g>
<!-- lib/Graph.ts&#45;&gt;lib/pithree.types.ts -->
<g id="edge12" class="edge">
<title>lib/Graph.ts&#45;&gt;lib/pithree.types.ts</title>
<path fill="none" stroke="#000000" stroke-width="2" stroke-opacity="0.200000" d="M177,-93.04C177,-111.32 177,-151 177,-151 177,-151 284.2,-151 284.2,-151"/>
<polygon fill="#000000" fill-opacity="0.200000" stroke="#000000" stroke-width="2" stroke-opacity="0.200000" points="284.2,-153.1 290.2,-151 284.2,-148.9 284.2,-153.1"/>
</g>
<!-- lib/Figures/AbstractFigure.ts -->
<g id="node4" class="node">
<title>lib/Figures/AbstractFigure.ts</title>
<g id="a_node4"><a xlink:href="lib/Figures/AbstractFigure.ts" xlink:title="AbstractFigure.ts">
<path fill="#ddfeff" stroke="black" d="M367,-63C367,-63 293,-63 293,-63 290,-63 287,-60 287,-57 287,-57 287,-51 287,-51 287,-48 290,-45 293,-45 293,-45 367,-45 367,-45 370,-45 373,-48 373,-51 373,-51 373,-57 373,-57 373,-60 370,-63 367,-63"/>
<text text-anchor="start" x="295" y="-51.8" font-family="Helvetica,sans-Serif" font-size="9.00">AbstractFigure.ts</text>
</a>
</g>
</g>
<!-- lib/Graph.ts&#45;&gt;lib/Figures/AbstractFigure.ts -->
<g id="edge8" class="edge">
<title>lib/Graph.ts&#45;&gt;lib/Figures/AbstractFigure.ts</title>
<path fill="none" stroke="#000000" stroke-width="2" stroke-opacity="0.200000" d="M186,-74.84C186,-66.01 186,-54 186,-54 186,-54 280.8,-54 280.8,-54"/>
<polygon fill="#000000" fill-opacity="0.200000" stroke="#000000" stroke-width="2" stroke-opacity="0.200000" points="280.8,-56.1 286.8,-54 280.8,-51.9 280.8,-56.1"/>
</g>
<!-- lib/Figures/Line.ts -->
<g id="node5" class="node">
<title>lib/Figures/Line.ts</title>
<g id="a_node5"><a xlink:href="lib/Figures/Line.ts" xlink:title="Line.ts">
<path fill="#ddfeff" stroke="black" d="M268,-108C268,-108 226,-108 226,-108 223,-108 220,-105 220,-102 220,-102 220,-96 220,-96 220,-93 223,-90 226,-90 226,-90 268,-90 268,-90 271,-90 274,-93 274,-96 274,-96 274,-102 274,-102 274,-105 271,-108 268,-108"/>
<text text-anchor="start" x="233" y="-96.8" font-family="Helvetica,sans-Serif" font-size="9.00">Line.ts</text>
</a>
</g>
</g>
<!-- lib/Graph.ts&#45;&gt;lib/Figures/Line.ts -->
<g id="edge9" class="edge">
<title>lib/Graph.ts&#45;&gt;lib/Figures/Line.ts</title>
<path fill="none" stroke="#000000" stroke-width="2" stroke-opacity="0.200000" d="M204.19,-86C227.04,-86 256,-86 256,-86 256,-86 256,-86.38 256,-86.38"/>
<polygon fill="#000000" fill-opacity="0.200000" stroke="#000000" stroke-width="2" stroke-opacity="0.200000" points="253.9,-83.83 256,-89.83 258.1,-83.83 253.9,-83.83"/>
</g>
<!-- lib/Figures/Plane.ts -->
<g id="node6" class="node">
<title>lib/Figures/Plane.ts</title>
<g id="a_node6"><a xlink:href="lib/Figures/Plane.ts" xlink:title="Plane.ts">
<path fill="#ddfeff" stroke="black" d="M268,-78C268,-78 226,-78 226,-78 223,-78 220,-75 220,-72 220,-72 220,-66 220,-66 220,-63 223,-60 226,-60 226,-60 268,-60 268,-60 271,-60 274,-63 274,-66 274,-66 274,-72 274,-72 274,-75 271,-78 268,-78"/>
<text text-anchor="start" x="230" y="-66.8" font-family="Helvetica,sans-Serif" font-size="9.00">Plane.ts</text>
</a>
</g>
</g>
<!-- lib/Graph.ts&#45;&gt;lib/Figures/Plane.ts -->
<g id="edge10" class="edge">
<title>lib/Graph.ts&#45;&gt;lib/Figures/Plane.ts</title>
<path fill="none" stroke="#000000" stroke-width="2" stroke-opacity="0.200000" d="M204.29,-82C220.53,-82 238,-82 238,-82 238,-82 238,-81.62 238,-81.62"/>
<polygon fill="#000000" fill-opacity="0.200000" stroke="#000000" stroke-width="2" stroke-opacity="0.200000" points="240.1,-84.17 238,-78.17 235.9,-84.17 240.1,-84.17"/>
</g>
<!-- lib/Figures/Point.ts -->
<g id="node7" class="node">
<title>lib/Figures/Point.ts</title>
<g id="a_node7"><a xlink:href="lib/Figures/Point.ts" xlink:title="Point.ts">
<path fill="#ddfeff" stroke="black" d="M268,-48C268,-48 226,-48 226,-48 223,-48 220,-45 220,-42 220,-42 220,-36 220,-36 220,-33 223,-30 226,-30 226,-30 268,-30 268,-30 271,-30 274,-33 274,-36 274,-36 274,-42 274,-42 274,-45 271,-48 268,-48"/>
<text text-anchor="start" x="231.5" y="-36.8" font-family="Helvetica,sans-Serif" font-size="9.00">Point.ts</text>
</a>
</g>
</g>
<!-- lib/Graph.ts&#45;&gt;lib/Figures/Point.ts -->
<g id="edge11" class="edge">
<title>lib/Graph.ts&#45;&gt;lib/Figures/Point.ts</title>
<path fill="none" stroke="#000000" stroke-width="2" stroke-opacity="0.200000" d="M168,-74.89C168,-61.74 168,-39 168,-39 168,-39 213.81,-39 213.81,-39"/>
<polygon fill="#000000" fill-opacity="0.200000" stroke="#000000" stroke-width="2" stroke-opacity="0.200000" points="213.81,-41.1 219.81,-39 213.81,-36.9 213.81,-41.1"/>
</g>
<!-- lib/Figures/Line.ts&#45;&gt;lib/pithree.types.ts -->
<g id="edge3" class="edge">
<title>lib/Figures/Line.ts&#45;&gt;lib/pithree.types.ts</title>
<path fill="none" stroke="#000000" stroke-width="2" stroke-opacity="0.200000" d="M247,-108.16C247,-121.96 247,-146.5 247,-146.5 247,-146.5 284.44,-146.5 284.44,-146.5"/>
<polygon fill="#000000" fill-opacity="0.200000" stroke="#000000" stroke-width="2" stroke-opacity="0.200000" points="284.44,-148.6 290.44,-146.5 284.44,-144.4 284.44,-148.6"/>
</g>
<!-- lib/Figures/Line.ts&#45;&gt;lib/Figures/AbstractFigure.ts -->
<g id="edge4" class="edge">
<title>lib/Figures/Line.ts&#45;&gt;lib/Figures/AbstractFigure.ts</title>
<path fill="none" stroke="#000000" stroke-width="2" stroke-opacity="0.200000" d="M274.02,-99C302.72,-99 344,-99 344,-99 344,-99 344,-69.11 344,-69.11"/>
<polygon fill="#000000" fill-opacity="0.200000" stroke="#000000" stroke-width="2" stroke-opacity="0.200000" points="346.1,-69.11 344,-63.11 341.9,-69.11 346.1,-69.11"/>
</g>
<!-- lib/Figures/Plane.ts&#45;&gt;lib/pithree.types.ts -->
<g id="edge5" class="edge">
<title>lib/Figures/Plane.ts&#45;&gt;lib/pithree.types.ts</title>
<path fill="none" stroke="#000000" stroke-width="2" stroke-opacity="0.200000" d="M274.26,-70.5C293.92,-70.5 317,-70.5 317,-70.5 317,-70.5 317,-135.77 317,-135.77"/>
<polygon fill="#000000" fill-opacity="0.200000" stroke="#000000" stroke-width="2" stroke-opacity="0.200000" points="314.9,-135.77 317,-141.77 319.1,-135.77 314.9,-135.77"/>
</g>
<!-- lib/Figures/Plane.ts&#45;&gt;lib/Figures/AbstractFigure.ts -->
<g id="edge6" class="edge">
<title>lib/Figures/Plane.ts&#45;&gt;lib/Figures/AbstractFigure.ts</title>
<path fill="none" stroke="#000000" stroke-width="2" stroke-opacity="0.200000" d="M238,-59.78C238,-58.17 238,-57 238,-57 238,-57 280.96,-57 280.96,-57"/>
<polygon fill="#000000" fill-opacity="0.200000" stroke="#000000" stroke-width="2" stroke-opacity="0.200000" points="280.96,-59.1 286.96,-57 280.96,-54.9 280.96,-59.1"/>
</g>
<!-- lib/Figures/Point.ts&#45;&gt;lib/Figures/AbstractFigure.ts -->
<g id="edge7" class="edge">
<title>lib/Figures/Point.ts&#45;&gt;lib/Figures/AbstractFigure.ts</title>
<path fill="none" stroke="#000000" stroke-width="2" stroke-opacity="0.200000" d="M256,-48.22C256,-49.83 256,-51 256,-51 256,-51 280.95,-51 280.95,-51"/>
<polygon fill="#000000" fill-opacity="0.200000" stroke="#000000" stroke-width="2" stroke-opacity="0.200000" points="280.95,-53.1 286.95,-51 280.95,-48.9 280.95,-53.1"/>
</g>
<!-- lib/index.ts -->
<g id="node8" class="node">
<title>lib/index.ts</title>
<g id="a_node8"><a xlink:href="lib/index.ts" xlink:title="index.ts">
<path fill="#ddfeff" stroke="black" d="M64,-104C64,-104 22,-104 22,-104 19,-104 16,-101 16,-98 16,-98 16,-92 16,-92 16,-89 19,-86 22,-86 22,-86 64,-86 64,-86 67,-86 70,-89 70,-92 70,-92 70,-98 70,-98 70,-101 67,-104 64,-104"/>
<text text-anchor="start" x="27" y="-92.8" font-family="Helvetica,sans-Serif" font-size="9.00">index.ts</text>
</a>
</g>
</g>
<!-- lib/index.ts&#45;&gt;lib/Draw.ts -->
<g id="edge13" class="edge">
<title>lib/index.ts&#45;&gt;lib/Draw.ts</title>
<path fill="none" stroke="#000000" stroke-width="2" stroke-opacity="0.200000" d="M70.25,-100.5C70.25,-100.5 76.99,-100.5 76.99,-100.5"/>
<polygon fill="#000000" fill-opacity="0.200000" stroke="#000000" stroke-width="2" stroke-opacity="0.200000" points="82.99,-102.6 76.99,-100.5 82.99,-98.4 82.99,-102.6"/>
</g>
<!-- lib/index.ts&#45;&gt;lib/Graph.ts -->
<g id="edge14" class="edge">
<title>lib/index.ts&#45;&gt;lib/Graph.ts</title>
<path fill="none" stroke="#000000" stroke-width="2" stroke-opacity="0.200000" d="M70.12,-88.33C70.12,-88.33 143.92,-88.33 143.92,-88.33"/>
<polygon fill="#000000" fill-opacity="0.200000" stroke="#000000" stroke-width="2" stroke-opacity="0.200000" points="149.92,-90.43 143.92,-88.33 149.92,-86.23 149.92,-90.43"/>
</g>
</g>
</svg>
