<?xml version="1.0" encoding="UTF-8" standalone="no"?>
<!DOCTYPE svg PUBLIC "-//W3C//DTD SVG 1.1//EN"
 "http://www.w3.org/Graphics/SVG/1.1/DTD/svg11.dtd">
<!-- Generated by graphviz version 3.0.0 (20220226.1711)
 -->
<!-- Title: dependency&#45;cruiser output Pages: 1 -->
<svg width="677pt" height="286pt"
 viewBox="0.00 0.00 677.00 286.00" xmlns="http://www.w3.org/2000/svg" xmlns:xlink="http://www.w3.org/1999/xlink">
<g id="graph0" class="graph" transform="scale(1 1) rotate(0) translate(4 282)">
<title>dependency&#45;cruiser output</title>
<polygon fill="white" stroke="transparent" points="-4,4 -4,-282 673,-282 673,4 -4,4"/>
<g id="clust1" class="cluster">
<title>cluster_lib</title>
<path fill="#ffffff" stroke="black" stroke-width="2" d="M20,-8C20,-8 649,-8 649,-8 655,-8 661,-14 661,-20 661,-20 661,-258 661,-258 661,-264 655,-270 649,-270 649,-270 20,-270 20,-270 14,-270 8,-264 8,-258 8,-258 8,-20 8,-20 8,-14 14,-8 20,-8"/>
<text text-anchor="middle" x="334.5" y="-258.8" font-family="Helvetica,sans-Serif" font-weight="bold" font-size="9.00">lib</text>
</g>
<g id="clust2" class="cluster">
<title>cluster_lib/figures</title>
<path fill="#ffffff" stroke="black" stroke-width="2" d="M345,-50C345,-50 636.5,-50 636.5,-50 642.5,-50 648.5,-56 648.5,-62 648.5,-62 648.5,-164 648.5,-164 648.5,-170 642.5,-176 636.5,-176 636.5,-176 345,-176 345,-176 339,-176 333,-170 333,-164 333,-164 333,-62 333,-62 333,-56 339,-50 345,-50"/>
<text text-anchor="middle" x="490.75" y="-164.8" font-family="Helvetica,sans-Serif" font-weight="bold" font-size="9.00">figures</text>
</g>
<g id="clust3" class="cluster">
<title>cluster_lib/parser</title>
<path fill="#ffffff" stroke="black" stroke-width="2" d="M157,-92C157,-92 313,-92 313,-92 319,-92 325,-98 325,-104 325,-104 325,-222 325,-222 325,-228 319,-234 313,-234 313,-234 157,-234 157,-234 151,-234 145,-228 145,-222 145,-222 145,-104 145,-104 145,-98 151,-92 157,-92"/>
<text text-anchor="middle" x="235" y="-222.8" font-family="Helvetica,sans-Serif" font-weight="bold" font-size="9.00">parser</text>
</g>
<!-- lib/Draw.ts -->
<g id="node1" class="node">
<title>lib/Draw.ts</title>
<g id="a_node1"><a xlink:href="lib/Draw.ts" xlink:title="Draw.ts">
<path fill="#ddfeff" stroke="black" d="M131,-89C131,-89 89,-89 89,-89 86,-89 83,-86 83,-83 83,-83 83,-77 83,-77 83,-74 86,-71 89,-71 89,-71 131,-71 131,-71 134,-71 137,-74 137,-77 137,-77 137,-83 137,-83 137,-86 134,-89 131,-89"/>
<text text-anchor="start" x="94" y="-77.8" font-family="Helvetica,sans-Serif" font-size="9.00">Draw.ts</text>
</a>
</g>
</g>
<!-- lib/figures/AbstractFigure.ts -->
<g id="node2" class="node">
<title>lib/figures/AbstractFigure.ts</title>
<g id="a_node2"><a xlink:href="lib/figures/AbstractFigure.ts" xlink:title="AbstractFigure.ts">
<path fill="#ddfeff" stroke="black" d="M555,-150C555,-150 481,-150 481,-150 478,-150 475,-147 475,-144 475,-144 475,-138 475,-138 475,-135 478,-132 481,-132 481,-132 555,-132 555,-132 558,-132 561,-135 561,-138 561,-138 561,-144 561,-144 561,-147 558,-150 555,-150"/>
<text text-anchor="start" x="483" y="-138.8" font-family="Helvetica,sans-Serif" font-size="9.00">AbstractFigure.ts</text>
</a>
</g>
</g>
<!-- lib/Draw.ts&#45;&gt;lib/figures/AbstractFigure.ts -->
<g id="edge1" class="edge">
<title>lib/Draw.ts&#45;&gt;lib/figures/AbstractFigure.ts</title>
<path fill="none" stroke="#000000" stroke-width="2" stroke-opacity="0.200000" d="M137.23,-82.5C229.56,-82.5 525,-82.5 525,-82.5 525,-82.5 525,-125.86 525,-125.86"/>
<polygon fill="#000000" fill-opacity="0.200000" stroke="#000000" stroke-width="2" stroke-opacity="0.200000" points="522.9,-125.86 525,-131.86 527.1,-125.86 522.9,-125.86"/>
</g>
<!-- lib/figures/Point.ts -->
<g id="node3" class="node">
<title>lib/figures/Point.ts</title>
<g id="a_node3"><a xlink:href="lib/figures/Point.ts" xlink:title="Point.ts">
<path fill="#ddfeff" stroke="black" d="M389,-118C389,-118 347,-118 347,-118 344,-118 341,-115 341,-112 341,-112 341,-106 341,-106 341,-103 344,-100 347,-100 347,-100 389,-100 389,-100 392,-100 395,-103 395,-106 395,-106 395,-112 395,-112 395,-115 392,-118 389,-118"/>
<text text-anchor="start" x="352.5" y="-106.8" font-family="Helvetica,sans-Serif" font-size="9.00">Point.ts</text>
</a>
</g>
</g>
<!-- lib/Draw.ts&#45;&gt;lib/figures/Point.ts -->
<g id="edge2" class="edge">
<title>lib/Draw.ts&#45;&gt;lib/figures/Point.ts</title>
<path fill="none" stroke="#000000" stroke-width="2" stroke-opacity="0.200000" d="M137.16,-85.75C200.94,-85.75 355,-85.75 355,-85.75 355,-85.75 355,-93.81 355,-93.81"/>
<polygon fill="#000000" fill-opacity="0.200000" stroke="#000000" stroke-width="2" stroke-opacity="0.200000" points="352.9,-93.81 355,-99.81 357.1,-93.81 352.9,-93.81"/>
</g>
<!-- lib/Graph.ts -->
<g id="node4" class="node">
<title>lib/Graph.ts</title>
<g id="a_node4"><a xlink:href="lib/Graph.ts" xlink:title="Graph.ts">
<path fill="#ddfeff" stroke="black" d="M302.5,-69C302.5,-69 260.5,-69 260.5,-69 257.5,-69 254.5,-66 254.5,-63 254.5,-63 254.5,-57 254.5,-57 254.5,-54 257.5,-51 260.5,-51 260.5,-51 302.5,-51 302.5,-51 305.5,-51 308.5,-54 308.5,-57 308.5,-57 308.5,-63 308.5,-63 308.5,-66 305.5,-69 302.5,-69"/>
<text text-anchor="start" x="263.5" y="-57.8" font-family="Helvetica,sans-Serif" font-size="9.00">Graph.ts</text>
</a>
</g>
</g>
<!-- lib/Draw.ts&#45;&gt;lib/Graph.ts -->
<g id="edge3" class="edge">
<title>lib/Draw.ts&#45;&gt;lib/Graph.ts</title>
<path fill="none" stroke="#000000" stroke-width="2" stroke-opacity="0.200000" d="M110,-70.96C110,-67.94 110,-65.33 110,-65.33 110,-65.33 248.33,-65.33 248.33,-65.33"/>
<polygon fill="#000000" fill-opacity="0.200000" stroke="#000000" stroke-width="2" stroke-opacity="0.200000" points="248.33,-67.43 254.33,-65.33 248.33,-63.23 248.33,-67.43"/>
</g>
<!-- lib/parser/parser.config.ts -->
<g id="node5" class="node">
<title>lib/parser/parser.config.ts</title>
<g id="a_node5"><a xlink:href="lib/parser/parser.config.ts" xlink:title="parser.config.ts">
<path fill="#ddfeff" stroke="black" d="M227,-163C227,-163 159,-163 159,-163 156,-163 153,-160 153,-157 153,-157 153,-151 153,-151 153,-148 156,-145 159,-145 159,-145 227,-145 227,-145 230,-145 233,-148 233,-151 233,-151 233,-157 233,-157 233,-160 230,-163 227,-163"/>
<text text-anchor="start" x="161" y="-151.8" font-family="Helvetica,sans-Serif" font-size="9.00">parser.config.ts</text>
</a>
</g>
</g>
<!-- lib/Draw.ts&#45;&gt;lib/parser/parser.config.ts -->
<g id="edge4" class="edge">
<title>lib/Draw.ts&#45;&gt;lib/parser/parser.config.ts</title>
<path fill="none" stroke="#000000" stroke-width="2" stroke-opacity="0.200000" d="M110,-89.07C110,-108.83 110,-154 110,-154 110,-154 146.96,-154 146.96,-154"/>
<polygon fill="#000000" fill-opacity="0.200000" stroke="#000000" stroke-width="2" stroke-opacity="0.200000" points="146.96,-156.1 152.96,-154 146.96,-151.9 146.96,-156.1"/>
</g>
<!-- lib/pithree.types.ts -->
<g id="node6" class="node">
<title>lib/pithree.types.ts</title>
<g id="a_node6"><a xlink:href="lib/pithree.types.ts" xlink:title="pithree.types.ts">
<path fill="#ddfeff" stroke="black" d="M647,-41C647,-41 580,-41 580,-41 577,-41 574,-38 574,-35 574,-35 574,-29 574,-29 574,-26 577,-23 580,-23 580,-23 647,-23 647,-23 650,-23 653,-26 653,-29 653,-29 653,-35 653,-35 653,-38 650,-41 647,-41"/>
<text text-anchor="start" x="582" y="-29.8" font-family="Helvetica,sans-Serif" font-size="9.00">pithree.types.ts</text>
</a>
</g>
</g>
<!-- lib/Draw.ts&#45;&gt;lib/pithree.types.ts -->
<g id="edge5" class="edge">
<title>lib/Draw.ts&#45;&gt;lib/pithree.types.ts</title>
<path fill="none" stroke="#000000" stroke-width="2" stroke-opacity="0.200000" d="M137.24,-79.25C237.34,-79.25 579,-79.25 579,-79.25 579,-79.25 579,-47.11 579,-47.11"/>
<polygon fill="#000000" fill-opacity="0.200000" stroke="#000000" stroke-width="2" stroke-opacity="0.200000" points="581.1,-47.11 579,-41.11 576.9,-47.11 581.1,-47.11"/>
</g>
<!-- lib/figures/AbstractFigure.ts&#45;&gt;lib/pithree.types.ts -->
<g id="edge12" class="edge">
<title>lib/figures/AbstractFigure.ts&#45;&gt;lib/pithree.types.ts</title>
<g id="a_edge12"><a xlink:title="type&#45;circular">
<path fill="none" stroke="orange" stroke-width="2" d="M561.04,-135.6C572.62,-135.6 582,-135.6 582,-135.6 582,-135.6 582,-54.99 582,-54.99"/>
<polygon fill="orange" stroke="orange" stroke-width="2" points="584.1,-47.19 582,-41.19 579.9,-47.19 584.1,-47.19"/>
<polyline fill="none" stroke="orange" stroke-width="2" points="582,-47.19 582,-50.19 "/>
<ellipse fill="none" stroke="orange" stroke-width="2" cx="582" cy="-52.59" rx="2.4" ry="2.4"/>
</a>
</g>
<text text-anchor="middle" x="557" y="-98.57" font-family="Helvetica,sans-Serif" font-size="9.00" fill="orange">type&#45;circular</text>
</g>
<!-- lib/figures/Label.ts -->
<g id="node10" class="node">
<title>lib/figures/Label.ts</title>
<g id="a_node10"><a xlink:href="lib/figures/Label.ts" xlink:title="Label.ts">
<path fill="#ddfeff" stroke="black" d="M634.5,-150C634.5,-150 592.5,-150 592.5,-150 589.5,-150 586.5,-147 586.5,-144 586.5,-144 586.5,-138 586.5,-138 586.5,-135 589.5,-132 592.5,-132 592.5,-132 634.5,-132 634.5,-132 637.5,-132 640.5,-135 640.5,-138 640.5,-138 640.5,-144 640.5,-144 640.5,-147 637.5,-150 634.5,-150"/>
<text text-anchor="start" x="596.5" y="-138.8" font-family="Helvetica,sans-Serif" font-size="9.00">Label.ts</text>
</a>
</g>
</g>
<!-- lib/figures/AbstractFigure.ts&#45;&gt;lib/figures/Label.ts -->
<g id="edge13" class="edge">
<title>lib/figures/AbstractFigure.ts&#45;&gt;lib/figures/Label.ts</title>
<g id="a_edge13"><a xlink:title="type&#45;circular">
<path fill="none" stroke="orange" stroke-width="2" d="M561,-146.4C561,-146.4 572.53,-146.4 572.53,-146.4"/>
<polygon fill="orange" stroke="orange" stroke-width="2" points="580.33,-148.5 586.33,-146.4 580.33,-144.3 580.33,-148.5"/>
<polyline fill="none" stroke="orange" stroke-width="2" points="580.33,-146.4 577.33,-146.4 "/>
<ellipse fill="none" stroke="orange" stroke-width="2" cx="574.93" cy="-146.4" rx="2.4" ry="2.4"/>
</a>
</g>
<text text-anchor="middle" x="591.77" y="-149.2" font-family="Helvetica,sans-Serif" font-size="9.00" fill="orange">type&#45;circular</text>
</g>
<!-- lib/figures/Point.ts&#45;&gt;lib/figures/AbstractFigure.ts -->
<g id="edge19" class="edge">
<title>lib/figures/Point.ts&#45;&gt;lib/figures/AbstractFigure.ts</title>
<path fill="none" stroke="#000000" stroke-width="2" stroke-opacity="0.200000" d="M368,-99.73C368,-96.89 368,-94.5 368,-94.5 368,-94.5 512,-94.5 512,-94.5 512,-94.5 512,-125.59 512,-125.59"/>
<polygon fill="#000000" fill-opacity="0.200000" stroke="#000000" stroke-width="2" stroke-opacity="0.200000" points="509.9,-125.59 512,-131.59 514.1,-125.59 509.9,-125.59"/>
</g>
<!-- lib/figures/Line.ts -->
<g id="node8" class="node">
<title>lib/figures/Line.ts</title>
<g id="a_node8"><a xlink:href="lib/figures/Line.ts" xlink:title="Line.ts">
<path fill="#ddfeff" stroke="black" d="M456,-150C456,-150 414,-150 414,-150 411,-150 408,-147 408,-144 408,-144 408,-138 408,-138 408,-135 411,-132 414,-132 414,-132 456,-132 456,-132 459,-132 462,-135 462,-138 462,-138 462,-144 462,-144 462,-147 459,-150 456,-150"/>
<text text-anchor="start" x="421" y="-138.8" font-family="Helvetica,sans-Serif" font-size="9.00">Line.ts</text>
</a>
</g>
</g>
<!-- lib/figures/Point.ts&#45;&gt;lib/figures/Line.ts -->
<g id="edge20" class="edge">
<title>lib/figures/Point.ts&#45;&gt;lib/figures/Line.ts</title>
<path fill="none" stroke="#000000" stroke-width="2" stroke-opacity="0.200000" d="M385,-118.13C385,-127.28 385,-140 385,-140 385,-140 401.95,-140 401.95,-140"/>
<polygon fill="#000000" fill-opacity="0.200000" stroke="#000000" stroke-width="2" stroke-opacity="0.200000" points="401.95,-142.1 407.95,-140 401.95,-137.9 401.95,-142.1"/>
</g>
<!-- lib/figures/Plane.ts -->
<g id="node9" class="node">
<title>lib/figures/Plane.ts</title>
<g id="a_node9"><a xlink:href="lib/figures/Plane.ts" xlink:title="Plane.ts">
<path fill="#ddfeff" stroke="black" d="M456,-120C456,-120 414,-120 414,-120 411,-120 408,-117 408,-114 408,-114 408,-108 408,-108 408,-105 411,-102 414,-102 414,-102 456,-102 456,-102 459,-102 462,-105 462,-108 462,-108 462,-114 462,-114 462,-117 459,-120 456,-120"/>
<text text-anchor="start" x="418" y="-108.8" font-family="Helvetica,sans-Serif" font-size="9.00">Plane.ts</text>
</a>
</g>
</g>
<!-- lib/figures/Point.ts&#45;&gt;lib/figures/Plane.ts -->
<g id="edge21" class="edge">
<title>lib/figures/Point.ts&#45;&gt;lib/figures/Plane.ts</title>
<path fill="none" stroke="#000000" stroke-width="2" stroke-opacity="0.200000" d="M395.25,-110C395.25,-110 401.99,-110 401.99,-110"/>
<polygon fill="#000000" fill-opacity="0.200000" stroke="#000000" stroke-width="2" stroke-opacity="0.200000" points="401.99,-112.1 407.99,-110 401.99,-107.9 401.99,-112.1"/>
</g>
<!-- lib/Graph.ts&#45;&gt;lib/figures/AbstractFigure.ts -->
<g id="edge6" class="edge">
<title>lib/Graph.ts&#45;&gt;lib/figures/AbstractFigure.ts</title>
<path fill="none" stroke="#000000" stroke-width="2" stroke-opacity="0.200000" d="M308.62,-55.67C376.63,-55.67 549,-55.67 549,-55.67 549,-55.67 549,-125.87 549,-125.87"/>
<polygon fill="#000000" fill-opacity="0.200000" stroke="#000000" stroke-width="2" stroke-opacity="0.200000" points="546.9,-125.87 549,-131.87 551.1,-125.87 546.9,-125.87"/>
</g>
<!-- lib/Graph.ts&#45;&gt;lib/figures/Point.ts -->
<g id="edge10" class="edge">
<title>lib/Graph.ts&#45;&gt;lib/figures/Point.ts</title>
<path fill="none" stroke="#000000" stroke-width="2" stroke-opacity="0.200000" d="M308.7,-64.6C338.46,-64.6 382,-64.6 382,-64.6 382,-64.6 382,-93.58 382,-93.58"/>
<polygon fill="#000000" fill-opacity="0.200000" stroke="#000000" stroke-width="2" stroke-opacity="0.200000" points="379.9,-93.58 382,-99.58 384.1,-93.58 379.9,-93.58"/>
</g>
<!-- lib/Graph.ts&#45;&gt;lib/pithree.types.ts -->
<g id="edge11" class="edge">
<title>lib/Graph.ts&#45;&gt;lib/pithree.types.ts</title>
<path fill="none" stroke="#000000" stroke-width="2" stroke-opacity="0.200000" d="M308.51,-53.33C381.45,-53.33 577,-53.33 577,-53.33 577,-53.33 577,-47.17 577,-47.17"/>
<polygon fill="#000000" fill-opacity="0.200000" stroke="#000000" stroke-width="2" stroke-opacity="0.200000" points="579.1,-47.17 577,-41.17 574.9,-47.17 579.1,-47.17"/>
</g>
<!-- lib/figures/Arc.ts -->
<g id="node7" class="node">
<title>lib/figures/Arc.ts</title>
<g id="a_node7"><a xlink:href="lib/figures/Arc.ts" xlink:title="Arc.ts">
<path fill="#ddfeff" stroke="black" d="M456,-76C456,-76 414,-76 414,-76 411,-76 408,-73 408,-70 408,-70 408,-64 408,-64 408,-61 411,-58 414,-58 414,-58 456,-58 456,-58 459,-58 462,-61 462,-64 462,-64 462,-70 462,-70 462,-73 459,-76 456,-76"/>
<text text-anchor="start" x="423.5" y="-64.8" font-family="Helvetica,sans-Serif" font-size="9.00">Arc.ts</text>
</a>
</g>
</g>
<!-- lib/Graph.ts&#45;&gt;lib/figures/Arc.ts -->
<g id="edge7" class="edge">
<title>lib/Graph.ts&#45;&gt;lib/figures/Arc.ts</title>
<path fill="none" stroke="#000000" stroke-width="2" stroke-opacity="0.200000" d="M308.59,-60.2C308.59,-60.2 401.92,-60.2 401.92,-60.2"/>
<polygon fill="#000000" fill-opacity="0.200000" stroke="#000000" stroke-width="2" stroke-opacity="0.200000" points="401.92,-62.3 407.92,-60.2 401.92,-58.1 401.92,-62.3"/>
</g>
<!-- lib/Graph.ts&#45;&gt;lib/figures/Line.ts -->
<g id="edge8" class="edge">
<title>lib/Graph.ts&#45;&gt;lib/figures/Line.ts</title>
<path fill="none" stroke="#000000" stroke-width="2" stroke-opacity="0.200000" d="M308.58,-66.8C319.25,-66.8 329,-66.8 329,-66.8 329,-66.8 329,-144 329,-144 329,-144 401.98,-144 401.98,-144"/>
<polygon fill="#000000" fill-opacity="0.200000" stroke="#000000" stroke-width="2" stroke-opacity="0.200000" points="401.98,-146.1 407.98,-144 401.98,-141.9 401.98,-146.1"/>
</g>
<!-- lib/Graph.ts&#45;&gt;lib/figures/Plane.ts -->
<g id="edge9" class="edge">
<title>lib/Graph.ts&#45;&gt;lib/figures/Plane.ts</title>
<path fill="none" stroke="#000000" stroke-width="2" stroke-opacity="0.200000" d="M308.69,-62.4C344.78,-62.4 404,-62.4 404,-62.4 404,-62.4 404,-106 404,-106 404,-106 404.38,-106 404.38,-106"/>
<polygon fill="#000000" fill-opacity="0.200000" stroke="#000000" stroke-width="2" stroke-opacity="0.200000" points="401.8,-108.1 407.8,-106 401.8,-103.9 401.8,-108.1"/>
</g>
<!-- lib/parser/parser.config.ts&#45;&gt;lib/figures/AbstractFigure.ts -->
<g id="edge35" class="edge">
<title>lib/parser/parser.config.ts&#45;&gt;lib/figures/AbstractFigure.ts</title>
<path fill="none" stroke="#000000" stroke-width="2" stroke-opacity="0.200000" d="M233.15,-156C318.45,-156 510,-156 510,-156 510,-156 510,-155.42 510,-155.42"/>
<polygon fill="#000000" fill-opacity="0.200000" stroke="#000000" stroke-width="2" stroke-opacity="0.200000" points="512.1,-156.24 510,-150.24 507.9,-156.24 512.1,-156.24"/>
</g>
<!-- lib/parser/buildArc.ts -->
<g id="node12" class="node">
<title>lib/parser/buildArc.ts</title>
<g id="a_node12"><a xlink:href="lib/parser/buildArc.ts" xlink:title="buildArc.ts">
<path fill="#ddfeff" stroke="black" d="M305,-118C305,-118 258,-118 258,-118 255,-118 252,-115 252,-112 252,-112 252,-106 252,-106 252,-103 255,-100 258,-100 258,-100 305,-100 305,-100 308,-100 311,-103 311,-106 311,-106 311,-112 311,-112 311,-115 308,-118 305,-118"/>
<text text-anchor="start" x="260" y="-106.8" font-family="Helvetica,sans-Serif" font-size="9.00">buildArc.ts</text>
</a>
</g>
</g>
<!-- lib/parser/parser.config.ts&#45;&gt;lib/parser/buildArc.ts -->
<g id="edge36" class="edge">
<title>lib/parser/parser.config.ts&#45;&gt;lib/parser/buildArc.ts</title>
<path fill="none" stroke="#000000" stroke-width="2" stroke-opacity="0.200000" d="M193,-144.89C193,-131.74 193,-109 193,-109 193,-109 245.54,-109 245.54,-109"/>
<polygon fill="#000000" fill-opacity="0.200000" stroke="#000000" stroke-width="2" stroke-opacity="0.200000" points="245.54,-111.1 251.54,-109 245.54,-106.9 245.54,-111.1"/>
</g>
<!-- lib/parser/buildLine.ts -->
<g id="node13" class="node">
<title>lib/parser/buildLine.ts</title>
<g id="a_node13"><a xlink:href="lib/parser/buildLine.ts" xlink:title="buildLine.ts">
<path fill="#ddfeff" stroke="black" d="M308,-148C308,-148 255,-148 255,-148 252,-148 249,-145 249,-142 249,-142 249,-136 249,-136 249,-133 252,-130 255,-130 255,-130 308,-130 308,-130 311,-130 314,-133 314,-136 314,-136 314,-142 314,-142 314,-145 311,-148 308,-148"/>
<text text-anchor="start" x="257" y="-136.8" font-family="Helvetica,sans-Serif" font-size="9.00">buildLine.ts</text>
</a>
</g>
</g>
<!-- lib/parser/parser.config.ts&#45;&gt;lib/parser/buildLine.ts -->
<g id="edge37" class="edge">
<title>lib/parser/parser.config.ts&#45;&gt;lib/parser/buildLine.ts</title>
<path fill="none" stroke="#000000" stroke-width="2" stroke-opacity="0.200000" d="M233.34,-154C250.23,-154 266,-154 266,-154 266,-154 266,-153.42 266,-153.42"/>
<polygon fill="#000000" fill-opacity="0.200000" stroke="#000000" stroke-width="2" stroke-opacity="0.200000" points="268.1,-154.24 266,-148.24 263.9,-154.24 268.1,-154.24"/>
</g>
<!-- lib/parser/buildPlane.ts -->
<g id="node14" class="node">
<title>lib/parser/buildPlane.ts</title>
<g id="a_node14"><a xlink:href="lib/parser/buildPlane.ts" xlink:title="buildPlane.ts">
<path fill="#ddfeff" stroke="black" d="M311,-208C311,-208 252,-208 252,-208 249,-208 246,-205 246,-202 246,-202 246,-196 246,-196 246,-193 249,-190 252,-190 252,-190 311,-190 311,-190 314,-190 317,-193 317,-196 317,-196 317,-202 317,-202 317,-205 314,-208 311,-208"/>
<text text-anchor="start" x="254" y="-196.8" font-family="Helvetica,sans-Serif" font-size="9.00">buildPlane.ts</text>
</a>
</g>
</g>
<!-- lib/parser/parser.config.ts&#45;&gt;lib/parser/buildPlane.ts -->
<g id="edge38" class="edge">
<title>lib/parser/parser.config.ts&#45;&gt;lib/parser/buildPlane.ts</title>
<path fill="none" stroke="#000000" stroke-width="2" stroke-opacity="0.200000" d="M193,-163.11C193,-176.26 193,-199 193,-199 193,-199 239.76,-199 239.76,-199"/>
<polygon fill="#000000" fill-opacity="0.200000" stroke="#000000" stroke-width="2" stroke-opacity="0.200000" points="239.76,-201.1 245.76,-199 239.76,-196.9 239.76,-201.1"/>
</g>
<!-- lib/parser/buildPoint.ts -->
<g id="node15" class="node">
<title>lib/parser/buildPoint.ts</title>
<g id="a_node15"><a xlink:href="lib/parser/buildPoint.ts" xlink:title="buildPoint.ts">
<path fill="#ddfeff" stroke="black" d="M309.5,-178C309.5,-178 253.5,-178 253.5,-178 250.5,-178 247.5,-175 247.5,-172 247.5,-172 247.5,-166 247.5,-166 247.5,-163 250.5,-160 253.5,-160 253.5,-160 309.5,-160 309.5,-160 312.5,-160 315.5,-163 315.5,-166 315.5,-166 315.5,-172 315.5,-172 315.5,-175 312.5,-178 309.5,-178"/>
<text text-anchor="start" x="255.5" y="-166.8" font-family="Helvetica,sans-Serif" font-size="9.00">buildPoint.ts</text>
</a>
</g>
</g>
<!-- lib/parser/parser.config.ts&#45;&gt;lib/parser/buildPoint.ts -->
<g id="edge39" class="edge">
<title>lib/parser/parser.config.ts&#45;&gt;lib/parser/buildPoint.ts</title>
<path fill="none" stroke="#000000" stroke-width="2" stroke-opacity="0.200000" d="M233.3,-158C262.91,-158 298,-158 298,-158 298,-158 298,-158.17 298,-158.17"/>
<polygon fill="#000000" fill-opacity="0.200000" stroke="#000000" stroke-width="2" stroke-opacity="0.200000" points="295.9,-153.72 298,-159.72 300.1,-153.72 295.9,-153.72"/>
</g>
<!-- lib/pithree.types.ts&#45;&gt;lib/figures/AbstractFigure.ts -->
<g id="edge40" class="edge">
<title>lib/pithree.types.ts&#45;&gt;lib/figures/AbstractFigure.ts</title>
<g id="a_edge40"><a xlink:title="type&#45;circular">
<path fill="none" stroke="orange" d="M584,-41.14C584,-67.06 584,-139.2 584,-139.2 584,-139.2 575.09,-139.2 575.09,-139.2"/>
<polygon fill="orange" stroke="orange" points="567.29,-137.1 561.29,-139.2 567.29,-141.3 567.29,-137.1"/>
<polyline fill="none" stroke="orange" points="567.29,-139.2 570.29,-139.2 "/>
<ellipse fill="none" stroke="orange" cx="572.69" cy="-139.2" rx="2.4" ry="2.4"/>
</a>
</g>
<text text-anchor="middle" x="559" y="-87.43" font-family="Helvetica,sans-Serif" font-size="9.00" fill="orange">type&#45;circular</text>
</g>
<!-- lib/figures/Arc.ts&#45;&gt;lib/figures/AbstractFigure.ts -->
<g id="edge14" class="edge">
<title>lib/figures/Arc.ts&#45;&gt;lib/figures/AbstractFigure.ts</title>
<path fill="none" stroke="#000000" stroke-width="2" stroke-opacity="0.200000" d="M462.07,-67C492.28,-67 537,-67 537,-67 537,-67 537,-125.93 537,-125.93"/>
<polygon fill="#000000" fill-opacity="0.200000" stroke="#000000" stroke-width="2" stroke-opacity="0.200000" points="534.9,-125.93 537,-131.93 539.1,-125.93 534.9,-125.93"/>
</g>
<!-- lib/figures/Line.ts&#45;&gt;lib/figures/AbstractFigure.ts -->
<g id="edge17" class="edge">
<title>lib/figures/Line.ts&#45;&gt;lib/figures/AbstractFigure.ts</title>
<path fill="none" stroke="#000000" stroke-width="2" stroke-opacity="0.200000" d="M462.18,-141C462.18,-141 468.82,-141 468.82,-141"/>
<polygon fill="#000000" fill-opacity="0.200000" stroke="#000000" stroke-width="2" stroke-opacity="0.200000" points="468.82,-143.1 474.82,-141 468.82,-138.9 468.82,-143.1"/>
</g>
<!-- lib/figures/Plane.ts&#45;&gt;lib/figures/AbstractFigure.ts -->
<g id="edge18" class="edge">
<title>lib/figures/Plane.ts&#45;&gt;lib/figures/AbstractFigure.ts</title>
<path fill="none" stroke="#000000" stroke-width="2" stroke-opacity="0.200000" d="M462.19,-111C480,-111 500,-111 500,-111 500,-111 500,-125.84 500,-125.84"/>
<polygon fill="#000000" fill-opacity="0.200000" stroke="#000000" stroke-width="2" stroke-opacity="0.200000" points="497.9,-125.84 500,-131.84 502.1,-125.84 497.9,-125.84"/>
</g>
<!-- lib/figures/Label.ts&#45;&gt;lib/figures/AbstractFigure.ts -->
<g id="edge16" class="edge">
<title>lib/figures/Label.ts&#45;&gt;lib/figures/AbstractFigure.ts</title>
<g id="a_edge16"><a xlink:title="type&#45;circular">
<path fill="none" stroke="orange" d="M586.39,-142.8C586.39,-142.8 575.06,-142.8 575.06,-142.8"/>
<polygon fill="orange" stroke="orange" points="567.26,-140.7 561.26,-142.8 567.26,-144.9 567.26,-140.7"/>
<polyline fill="none" stroke="orange" points="567.26,-142.8 570.26,-142.8 "/>
<ellipse fill="none" stroke="orange" cx="572.66" cy="-142.8" rx="2.4" ry="2.4"/>
</a>
</g>
<text text-anchor="middle" x="555.72" y="-135.6" font-family="Helvetica,sans-Serif" font-size="9.00" fill="orange">type&#45;circular</text>
</g>
<!-- lib/figures/Label.ts&#45;&gt;lib/pithree.types.ts -->
<g id="edge15" class="edge">
<title>lib/figures/Label.ts&#45;&gt;lib/pithree.types.ts</title>
<g id="a_edge15"><a xlink:title="type&#45;circular">
<path fill="none" stroke="orange" stroke-width="2" d="M614,-131.71C614,-131.71 614,-55.07 614,-55.07"/>
<polygon fill="orange" stroke="orange" stroke-width="2" points="616.1,-47.27 614,-41.27 611.9,-47.27 616.1,-47.27"/>
<polyline fill="none" stroke="orange" stroke-width="2" points="614,-47.27 614,-50.27 "/>
<ellipse fill="none" stroke="orange" stroke-width="2" cx="614" cy="-52.67" rx="2.4" ry="2.4"/>
</a>
</g>
<text text-anchor="middle" x="639" y="-86.19" font-family="Helvetica,sans-Serif" font-size="9.00" fill="orange">type&#45;circular</text>
</g>
<!-- lib/index.ts -->
<g id="node11" class="node">
<title>lib/index.ts</title>
<g id="a_node11"><a xlink:href="lib/index.ts" xlink:title="index.ts">
<path fill="#ddfeff" stroke="black" d="M64,-76C64,-76 22,-76 22,-76 19,-76 16,-73 16,-70 16,-70 16,-64 16,-64 16,-61 19,-58 22,-58 22,-58 64,-58 64,-58 67,-58 70,-61 70,-64 70,-64 70,-70 70,-70 70,-73 67,-76 64,-76"/>
<text text-anchor="start" x="27" y="-64.8" font-family="Helvetica,sans-Serif" font-size="9.00">index.ts</text>
</a>
</g>
</g>
<!-- lib/index.ts&#45;&gt;lib/Draw.ts -->
<g id="edge22" class="edge">
<title>lib/index.ts&#45;&gt;lib/Draw.ts</title>
<path fill="none" stroke="#000000" stroke-width="2" stroke-opacity="0.200000" d="M43,-76.2C43,-79.53 43,-82.5 43,-82.5 43,-82.5 76.75,-82.5 76.75,-82.5"/>
<polygon fill="#000000" fill-opacity="0.200000" stroke="#000000" stroke-width="2" stroke-opacity="0.200000" points="82.75,-84.6 76.75,-82.5 82.75,-80.4 82.75,-84.6"/>
</g>
<!-- lib/index.ts&#45;&gt;lib/Graph.ts -->
<g id="edge23" class="edge">
<title>lib/index.ts&#45;&gt;lib/Graph.ts</title>
<path fill="none" stroke="#000000" stroke-width="2" stroke-opacity="0.200000" d="M70.36,-61.67C70.36,-61.67 248.46,-61.67 248.46,-61.67"/>
<polygon fill="#000000" fill-opacity="0.200000" stroke="#000000" stroke-width="2" stroke-opacity="0.200000" points="254.46,-63.77 248.46,-61.67 254.46,-59.57 254.46,-63.77"/>
</g>
<!-- lib/parser/buildArc.ts&#45;&gt;lib/figures/AbstractFigure.ts -->
<g id="edge24" class="edge">
<title>lib/parser/buildArc.ts&#45;&gt;lib/figures/AbstractFigure.ts</title>
<path fill="none" stroke="#000000" stroke-opacity="0.200000" d="M282,-118.12C282,-121.71 282,-125 282,-125 282,-125 488,-125 488,-125 488,-125 488,-125.88 488,-125.88"/>
<polygon fill="none" stroke="#000000" stroke-opacity="0.200000" points="485.9,-125.88 488,-131.88 490.1,-125.88 485.9,-125.88"/>
</g>
<!-- lib/parser/buildArc.ts&#45;&gt;lib/figures/Point.ts -->
<g id="edge25" class="edge">
<title>lib/parser/buildArc.ts&#45;&gt;lib/figures/Point.ts</title>
<path fill="none" stroke="#000000" stroke-opacity="0.200000" d="M311.27,-109C311.27,-109 334.79,-109 334.79,-109"/>
<polygon fill="none" stroke="#000000" stroke-opacity="0.200000" points="334.79,-111.1 340.79,-109 334.79,-106.9 334.79,-111.1"/>
</g>
<!-- lib/parser/buildLine.ts&#45;&gt;lib/figures/AbstractFigure.ts -->
<g id="edge26" class="edge">
<title>lib/parser/buildLine.ts&#45;&gt;lib/figures/AbstractFigure.ts</title>
<path fill="none" stroke="#000000" stroke-opacity="0.200000" d="M282,-148.17C282,-150.32 282,-152 282,-152 282,-152 493,-152 493,-152 493,-152 493,-151.83 493,-151.83"/>
<polygon fill="none" stroke="#000000" stroke-opacity="0.200000" points="495.1,-156.28 493,-150.28 490.9,-156.28 495.1,-156.28"/>
</g>
<!-- lib/parser/buildLine.ts&#45;&gt;lib/figures/Point.ts -->
<g id="edge27" class="edge">
<title>lib/parser/buildLine.ts&#45;&gt;lib/figures/Point.ts</title>
<path fill="none" stroke="#000000" stroke-opacity="0.200000" d="M314.27,-136C332.68,-136 352,-136 352,-136 352,-136 352,-124.14 352,-124.14"/>
<polygon fill="none" stroke="#000000" stroke-opacity="0.200000" points="354.1,-124.14 352,-118.14 349.9,-124.14 354.1,-124.14"/>
</g>
<!-- lib/parser/buildPlane.ts&#45;&gt;lib/figures/AbstractFigure.ts -->
<g id="edge28" class="edge">
<title>lib/parser/buildPlane.ts&#45;&gt;lib/figures/AbstractFigure.ts</title>
<path fill="none" stroke="#000000" stroke-opacity="0.200000" d="M317.18,-203.5C388.95,-203.5 544,-203.5 544,-203.5 544,-203.5 544,-156.22 544,-156.22"/>
<polygon fill="none" stroke="#000000" stroke-opacity="0.200000" points="546.1,-156.22 544,-150.22 541.9,-156.22 546.1,-156.22"/>
</g>
<!-- lib/parser/buildPlane.ts&#45;&gt;lib/figures/Point.ts -->
<g id="edge30" class="edge">
<title>lib/parser/buildPlane.ts&#45;&gt;lib/figures/Point.ts</title>
<path fill="none" stroke="#000000" stroke-opacity="0.200000" d="M317.26,-194.5C343.29,-194.5 374,-194.5 374,-194.5 374,-194.5 374,-124.15 374,-124.15"/>
<polygon fill="none" stroke="#000000" stroke-opacity="0.200000" points="376.1,-124.15 374,-118.15 371.9,-124.15 376.1,-124.15"/>
</g>
<!-- lib/parser/buildPlane.ts&#45;&gt;lib/figures/Line.ts -->
<g id="edge29" class="edge">
<title>lib/parser/buildPlane.ts&#45;&gt;lib/figures/Line.ts</title>
<path fill="none" stroke="#000000" stroke-width="2" stroke-opacity="0.200000" d="M317.16,-199C365,-199 444,-199 444,-199 444,-199 444,-156.06 444,-156.06"/>
<polygon fill="#000000" fill-opacity="0.200000" stroke="#000000" stroke-width="2" stroke-opacity="0.200000" points="446.1,-156.06 444,-150.06 441.9,-156.06 446.1,-156.06"/>
</g>
<!-- lib/parser/buildPoint.ts&#45;&gt;lib/figures/AbstractFigure.ts -->
<g id="edge31" class="edge">
<title>lib/parser/buildPoint.ts&#45;&gt;lib/figures/AbstractFigure.ts</title>
<path fill="none" stroke="#000000" stroke-opacity="0.200000" d="M315.64,-174.4C383.09,-174.4 527,-174.4 527,-174.4 527,-174.4 527,-156.13 527,-156.13"/>
<polygon fill="none" stroke="#000000" stroke-opacity="0.200000" points="529.1,-156.13 527,-150.13 524.9,-156.13 529.1,-156.13"/>
</g>
<!-- lib/parser/buildPoint.ts&#45;&gt;lib/figures/Point.ts -->
<g id="edge34" class="edge">
<title>lib/parser/buildPoint.ts&#45;&gt;lib/figures/Point.ts</title>
<path fill="none" stroke="#000000" stroke-width="2" stroke-opacity="0.200000" d="M315.59,-163.6C337.92,-163.6 363,-163.6 363,-163.6 363,-163.6 363,-124.02 363,-124.02"/>
<polygon fill="#000000" fill-opacity="0.200000" stroke="#000000" stroke-width="2" stroke-opacity="0.200000" points="365.1,-124.02 363,-118.02 360.9,-124.02 365.1,-124.02"/>
</g>
<!-- lib/parser/buildPoint.ts&#45;&gt;lib/figures/Line.ts -->
<g id="edge32" class="edge">
<title>lib/parser/buildPoint.ts&#45;&gt;lib/figures/Line.ts</title>
<path fill="none" stroke="#000000" stroke-width="2" stroke-opacity="0.200000" d="M315.74,-170.8C358.48,-170.8 426,-170.8 426,-170.8 426,-170.8 426,-156.1 426,-156.1"/>
<polygon fill="#000000" fill-opacity="0.200000" stroke="#000000" stroke-width="2" stroke-opacity="0.200000" points="428.1,-156.1 426,-150.1 423.9,-156.1 428.1,-156.1"/>
</g>
<!-- lib/parser/buildPoint.ts&#45;&gt;lib/figures/Plane.ts -->
<g id="edge33" class="edge">
<title>lib/parser/buildPoint.ts&#45;&gt;lib/figures/Plane.ts</title>
<path fill="none" stroke="#000000" stroke-width="2" stroke-opacity="0.200000" d="M315.78,-167.2C350.77,-167.2 400,-167.2 400,-167.2 400,-167.2 400,-114 400,-114 400,-114 401.77,-114 401.77,-114"/>
<polygon fill="#000000" fill-opacity="0.200000" stroke="#000000" stroke-width="2" stroke-opacity="0.200000" points="401.77,-116.1 407.77,-114 401.77,-111.9 401.77,-116.1"/>
</g>
</g>
</svg>
